<svg id="Layer_1" data-name="Layer 1" xmlns="http://www.w3.org/2000/svg" viewBox="13 0 224 224">
    <defs>
        <style>
            .cls-1{fill:none;}.cls-2{fill:#fdbc42;}.cls-3{fill:#18b575;}.cls-4{fill:#3d55a5;}.cls-5{fill:#ed1869;}</style>
    </defs>
    <rect class="cls-1" x="31.07" y="31.07" width="187.87" height="187.87" />
    <g id="Quản_lý" data-name="Quản lý">
        <path class="cls-2"
            d="M160.42,97.45h53.37a5.14,5.14,0,0,1,5.14,5.14v50a0,0,0,0,1,0,0H160.42a5.14,5.14,0,0,1-5.14-5.14V102.6A5.14,5.14,0,0,1,160.42,97.45Z" />
        <path class="cls-3"
            d="M155.27,88.92H77.8a9.29,9.29,0,0,0-9.28,9.28V184a9.29,9.29,0,0,0,9.28,9.28H209.65a9.28,9.28,0,0,0,9.28-9.28V152.58H162.35a7.07,7.07,0,0,1-7.08-7.07Z" />
        <path class="cls-4" d="M218.93,152.58H160.17a4.9,4.9,0,0,1-4.9-4.89V88.92Z" />
        <path class="cls-5" d="M155.27,88.92l8.6,47.11a3.1,3.1,0,0,0,2.24,2.44l52.82,14.11Z" />
        <path id="SVGID" class="cls-2"
            d="M85.25,56.7A27.29,27.29,0,1,0,112.53,84,27.3,27.3,0,0,0,85.25,56.7Z" />
        <path class="cls-2"
            d="M139.42,166.39c0,25.14-24.26,26.91-54.18,26.91s-54.17-1.77-54.17-26.91,24.25-45.54,54.17-45.54S139.42,141.23,139.42,166.39Z" />
    </g>
</svg>