<svg width="19" height="20" viewBox="0 0 19 20" fill="none" xmlns="http://www.w3.org/2000/svg">
<path d="M3.10742 15.8925C4.27285 17.0579 5.75771 17.8516 7.37422 18.1732C8.99074 18.4947 10.6663 18.3297 12.189 17.699C13.7118 17.0682 15.0133 16.0001 15.9289 14.6297C16.8446 13.2593 17.3334 11.6481 17.3334 9.99996C17.3334 8.35178 16.8446 6.74061 15.9289 5.37019C15.0133 3.99978 13.7118 2.93168 12.189 2.30095C10.6663 1.67023 8.99074 1.50521 7.37422 1.82676C5.75771 2.14832 4.27285 2.94201 3.10742 4.10746" stroke="#19376B" stroke-width="2"/>
<path d="M11.4993 10L12.1493 9.47917L12.566 10L12.1493 10.5208L11.4993 10ZM1.49935 10.8333C1.27834 10.8333 1.06637 10.7455 0.910093 10.5893C0.753813 10.433 0.666016 10.221 0.666016 10C0.666016 9.77899 0.753813 9.56702 0.910093 9.41074C1.06637 9.25446 1.27834 9.16667 1.49935 9.16667V10.8333ZM8.81602 5.3125L12.1493 9.47917L10.8493 10.5208L7.51602 6.35417L8.81602 5.3125ZM12.1493 10.5208L8.81602 14.6875L7.51602 13.6458L10.8493 9.47917L12.1493 10.5208ZM11.4993 10.8333H1.49935V9.16667H11.4993V10.8333Z" fill="#19376B"/>
</svg>
