<svg width="20" height="20" viewBox="0 0 20 20" fill="none" xmlns="http://www.w3.org/2000/svg">
<path d="M5.71453 2.03756C6.66703 2.73172 7.4087 3.67922 8.04203 4.58589L8.41036 5.12256L8.75786 5.63506C8.93168 5.889 9.006 6.19801 8.96666 6.50322C8.92732 6.80843 8.77707 7.0885 8.54453 7.29006L6.9187 8.49756C6.84015 8.55428 6.78486 8.63758 6.76309 8.73199C6.74133 8.8264 6.75457 8.92551 6.80036 9.01089C7.1687 9.68006 7.8237 10.6767 8.5737 11.4267C9.3237 12.1767 10.3679 12.8751 11.0837 13.2851C11.1734 13.3354 11.2791 13.3495 11.3789 13.3244C11.4787 13.2993 11.5651 13.2369 11.6204 13.1501L12.6787 11.5392C12.8733 11.2808 13.1603 11.1076 13.4797 11.056C13.7991 11.0045 14.126 11.0785 14.392 11.2626L14.9445 11.6451C15.977 12.3617 17.0862 13.1759 17.9345 14.2617C18.0691 14.4349 18.1547 14.641 18.1824 14.8585C18.2101 15.0761 18.1789 15.297 18.092 15.4984C17.3945 17.1259 15.6295 18.5117 13.7937 18.4442L13.5437 18.4301L13.3495 18.4134L13.1345 18.3884L12.9004 18.3567L12.6462 18.3151L12.5129 18.2901L12.2329 18.2301L12.0862 18.1967L11.7812 18.1184L11.4604 18.0267L11.1254 17.9184C9.58703 17.3967 7.63453 16.3717 5.6312 14.3684C3.62786 12.3651 2.6037 10.4134 2.08203 8.87506L1.9737 8.54006L1.88203 8.21922L1.8037 7.91422L1.7387 7.62589C1.71994 7.53558 1.70244 7.44502 1.6862 7.35422L1.64453 7.10006L1.6112 6.86589L1.58703 6.65089L1.57036 6.45672L1.55703 6.20672C1.48953 4.37672 2.89036 2.59922 4.51036 1.90506C4.70534 1.82086 4.91886 1.78881 5.12997 1.81204C5.34108 1.83527 5.54252 1.91298 5.71453 2.03756ZM12.4937 5.03339L12.5904 5.04422C13.197 5.15122 13.7541 5.44751 14.1819 5.89062C14.6098 6.33374 14.8864 6.90092 14.972 7.51089C15.0026 7.72187 14.9511 7.93654 14.8282 8.11073C14.7053 8.28491 14.5203 8.40537 14.3113 8.44733C14.1023 8.48928 13.8851 8.44953 13.7045 8.33626C13.5239 8.223 13.3936 8.04482 13.3404 7.83839L13.3212 7.74256C13.2877 7.50347 13.1856 7.27922 13.0274 7.09688C12.8692 6.91454 12.6615 6.78193 12.4295 6.71506L12.3004 6.68589C12.0911 6.6488 11.9039 6.53317 11.7771 6.36265C11.6503 6.19212 11.5934 5.97959 11.6181 5.76851C11.6428 5.55744 11.7472 5.36377 11.91 5.22713C12.0727 5.09048 12.2815 5.02118 12.4937 5.03339ZM12.5004 2.50006C13.8264 2.50006 15.0982 3.02684 16.0359 3.96452C16.9736 4.90221 17.5004 6.17397 17.5004 7.50006C17.5001 7.71246 17.4188 7.91675 17.273 8.0712C17.1272 8.22564 16.9279 8.31859 16.7159 8.33103C16.5038 8.34348 16.295 8.2745 16.1322 8.13817C15.9693 8.00185 15.8646 7.80847 15.8395 7.59756L15.8337 7.50006C15.8336 6.65386 15.5117 5.83936 14.9332 5.22175C14.3548 4.60414 13.5631 4.22965 12.7187 4.17422L12.5004 4.16672C12.2793 4.16672 12.0674 4.07893 11.9111 3.92265C11.7548 3.76637 11.667 3.5544 11.667 3.33339C11.667 3.11238 11.7548 2.90042 11.9111 2.74414C12.0674 2.58785 12.2793 2.50006 12.5004 2.50006Z" fill="#19376B"/>
</svg>
