<svg width="20" height="20" viewBox="0 0 20 20" fill="none" xmlns="http://www.w3.org/2000/svg">
<path d="M16.666 6.66663H3.33268V4.99996H16.666V6.66663ZM14.9993 1.66663H4.99935V3.33329H14.9993V1.66663ZM18.3327 9.99996V16.6666C18.3327 17.1087 18.1571 17.5326 17.8445 17.8451C17.532 18.1577 17.108 18.3333 16.666 18.3333H3.33268C2.89106 18.332 2.4679 18.156 2.15563 17.8437C1.84335 17.5314 1.66733 17.1082 1.66602 16.6666V9.99996C1.66733 9.55834 1.84335 9.13518 2.15563 8.82291C2.4679 8.51063 2.89106 8.33461 3.33268 8.33329H16.666C17.1076 8.33461 17.5308 8.51063 17.8431 8.82291C18.1553 9.13518 18.3314 9.55834 18.3327 9.99996ZM11.6052 14.2016L13.541 12.5466L10.9918 12.3333L9.99935 9.99996L9.00685 12.3333L6.45768 12.5466L8.39352 14.2016L7.81018 16.6666L9.99935 15.3566L12.1885 16.6666L11.6052 14.2016Z" fill="#19376B"/>
</svg>
